{"title":"Sleepy Hollow S03E15 Incommunicado 1080P WEB-DL DD5 1 H 264","uid":13927246,"size":1846674266,"categoryP":"video","categoryS":"hd___tv_shows","magnet":"?xt=urn:btih:9b06a11bba084ae106ded42b9b4f5f8ccdda7462&amp;dn=Sleepy+Hollow+S03E15+Incommunicado+1080P+WEB-DL+DD5+1+H+264&amp;tr=udp%3A%2F%2Ftracker.leechers-paradise.org%3A6969&amp;tr=udp%3A%2F%2Fzer0day.ch%3A1337&amp;tr=udp%3A%2F%2Fopen.demonii.com%3A1337&amp;tr=udp%3A%2F%2Ftracker.coppersurfer.tk%3A6969&amp;tr=udp%3A%2F%2Fexodus.desync.com%3A6969","seeders":2,"leechers":0,"uploader":"jmanwf","files":2,"time":1458391407,"description":"Description\r\nAfter a supernatural event takes the Witnesses by surprise, both Crane and Abbie are forced to work alongside their most hated foes yet. Meanwhile, Jenny and Joe struggle to salvage their relationship, as they continue to battle their own internal demons.\r\n\r\n\r\n\r\nVideo\r\nID : 2\r\nFormat : AVC\r\nFormat/Info : Advanced Video Codec\r\nFormat profile :   \r\nFormat settings, CABAC : Yes\r\nFormat settings, ReFrames : 4 frames\r\nCodec ID : avc1\r\nCodec ID/Info : Advanced Video Coding\r\nDuration : 43mn 56s\r\nBit rate : 5 090 Kbps\r\nWidth : 1 920 pixels\r\nHeight : 1 080 pixels\r\nDisplay aspect ratio : 16:9\r\nFrame rate mode : Constant\r\nFrame rate : 23.976 fps\r\nColor space : YUV\r\nChroma subsampling : 4:2:0\r\nBit depth : 8 bits\r\nScan type : Progressive\r\nBits/(Pixel*Frame) : 0.102\r\nStream size : 1.56 GiB (91%)\r\nLanguage : English\r\nEncoded date : UTC 2016-03-19 10:10:52\r\nTagged date : UTC 2016-03-19 10:16:42\r\nColor range : Limited\r\nColor primaries : BT.709\r\nTransfer characteristics : BT.709\r\nMatrix coefficients : BT.709\r\n\r\nAudio #1\r\nID : 1\r\nFormat : AAC\r\nFormat/Info : Advanced Audio Codec\r\nFormat profile : LC\r\nCodec ID : 40\r\nDuration : 43mn 56s\r\nBit rate mode : Variable\r\nBit rate : 126 Kbps\r\nMaximum bit rate : 208 Kbps\r\nChannel(s) : 2 channels\r\nChannel positions : Front: L R\r\nSampling rate : 48.0 KHz\r\nCompression mode : Lossy\r\nStream size : 39.5 MiB (2%)\r\nLanguage : English\r\nEncoded date : UTC 2016-03-19 10:10:52\r\nTagged date : UTC 2016-03-19 10:16:42\r\n\r\nAudio #2\r\nID : 3\r\nFormat : AC-3\r\nFormat/Info : Audio Coding 3\r\nMode extension : CM (complete main)\r\nFormat settings, Endianness : Big\r\nCodec ID : ac-3\r\nDuration : 43mn 56s\r\nBit rate mode : Constant\r\nBit rate : 384 Kbps\r\nChannel(s) : 6 channels\r\nChannel positions : Front: L C R, Side: L R, LFE\r\nSampling rate : 48.0 KHz\r\nBit depth : 16 bits\r\nCompression mode : Lossy\r\nStream size : 121 MiB (7%)\r\nLanguage : English\r\nEncoded date : UTC 2016-03-19 10:10:52\r\nTagged date : UTC 2016-03-19 10:16:42\r\n\r\nText\r\nID : 4-CC1\r\nFormat : EIA-608\r\nMuxing mode : Final Cut\r\nCodec ID : c608\r\nDuration : 43mn 54s\r\nBit rate mode : Constant\r\nStream size : 0.00 Byte (0%)\r\nLanguage : English\r\nEncoded date : UTC 2016-03-19 10:10:52\r\nTagged date : UTC 2016-03-19 10:11:14","torrent":{"xt":"urn:btih:9b06a11bba084ae106ded42b9b4f5f8ccdda7462","amp;dn":"Sleepy+Hollow+S03E15+Incommunicado+1080P+WEB-DL+DD5+1+H+264","amp;tr":["udp%3A%2F%2Ftracker.leechers-paradise.org%3A6969","udp%3A%2F%2Fzer0day.ch%3A1337","udp%3A%2F%2Fopen.demonii.com%3A1337","udp%3A%2F%2Ftracker.coppersurfer.tk%3A6969","udp%3A%2F%2Fexodus.desync.com%3A6969"],"infoHash":"9b06a11bba084ae106ded42b9b4f5f8ccdda7462","infoHashBuffer":{"type":"Buffer","data":[155,6,161,27,186,8,74,225,6,222,212,43,155,79,95,140,205,218,116,98]},"announce":[],"urlList":[]}}